<svg xmlns="http://www.w3.org/2000/svg" xmlns:xlink="http://www.w3.org/1999/xlink" width="583" zoomAndPan="magnify" viewBox="0 0 437.25 271.499997" height="362" preserveAspectRatio="xMidYMid meet" version="1.0"><defs><filter x="0%" y="0%" width="100%" height="100%" id="ca7eb897db"><feColorMatrix values="0 0 0 0 1 0 0 0 0 1 0 0 0 0 1 0 0 0 1 0" color-interpolation-filters="sRGB"/></filter><g/><clipPath id="e65522cf09"><path d="M 88.847656 88.191406 L 183.175781 88.191406 L 183.175781 182.515625 L 88.847656 182.515625 Z M 88.847656 88.191406 " clip-rule="nonzero"/></clipPath><clipPath id="74582593bd"><path d="M 90.484375 89.828125 L 181.816406 89.828125 L 181.816406 181.160156 L 90.484375 181.160156 Z M 90.484375 89.828125 " clip-rule="nonzero"/></clipPath><clipPath id="dfdd24cdc0"><path d="M 92.140625 91.484375 L 180.480469 91.484375 L 180.480469 179.820312 L 92.140625 179.820312 Z M 92.140625 91.484375 " clip-rule="nonzero"/></clipPath><mask id="e4981a9258"><g filter="url(#ca7eb897db)"><rect x="-43.725" width="524.7" fill="#000000" y="-27.15" height="325.799996" fill-opacity="0.9686"/></g></mask><clipPath id="3a6f660e3c"><path d="M 4 1 L 60 1 L 60 62 L 4 62 Z M 4 1 " clip-rule="nonzero"/></clipPath><clipPath id="a67bba5364"><path d="M -0.0664062 4.277344 L 59.476562 -0.847656 L 64.601562 58.695312 L 5.058594 63.820312 Z M -0.0664062 4.277344 " clip-rule="nonzero"/></clipPath><clipPath id="cb5f0131d5"><path d="M -0.0664062 4.277344 L 59.476562 -0.847656 L 64.601562 58.695312 L 5.058594 63.820312 Z M -0.0664062 4.277344 " clip-rule="nonzero"/></clipPath><clipPath id="2acc6f3a28"><rect x="0" width="64" y="0" height="63"/></clipPath><mask id="e88b160470"><g filter="url(#ca7eb897db)"><rect x="-43.725" width="524.7" fill="#000000" y="-27.15" height="325.799996" fill-opacity="0.898"/></g></mask><clipPath id="685914fdd5"><path d="M 7 1 L 60 1 L 60 46 L 7 46 Z M 7 1 " clip-rule="nonzero"/></clipPath><clipPath id="03a1394124"><path d="M 7.792969 4.800781 L 59.59375 0.339844 L 63.132812 41.421875 L 11.332031 45.882812 Z M 7.792969 4.800781 " clip-rule="nonzero"/></clipPath><clipPath id="7c7e343e3f"><path d="M -0.0585938 4.335938 L 59.480469 -0.789062 L 64.609375 58.753906 L 5.066406 63.878906 Z M -0.0585938 4.335938 " clip-rule="nonzero"/></clipPath><clipPath id="05742d256c"><rect x="0" width="64" y="0" height="63"/></clipPath><mask id="a7e57162ad"><g filter="url(#ca7eb897db)"><rect x="-43.725" width="524.7" fill="#000000" y="-27.15" height="325.799996" fill-opacity="0.898"/></g></mask><clipPath id="e934c829c9"><path d="M 24 1 L 60 1 L 60 21 L 24 21 Z M 24 1 " clip-rule="nonzero"/></clipPath><clipPath id="9907c415e2"><path d="M 24.753906 2.140625 L 59.585938 -0.855469 L 61.175781 17.601562 L 26.34375 20.601562 Z M 24.753906 2.140625 " clip-rule="nonzero"/></clipPath><clipPath id="dc02e26767"><path d="M -0.0664062 4.277344 L 59.476562 -0.847656 L 64.601562 58.695312 L 5.0625 63.820312 Z M -0.0664062 4.277344 " clip-rule="nonzero"/></clipPath><clipPath id="a67bcb37d4"><rect x="0" width="64" y="0" height="63"/></clipPath><mask id="70be0104f0"><g filter="url(#ca7eb897db)"><rect x="-43.725" width="524.7" fill="#000000" y="-27.15" height="325.799996" fill-opacity="0.9686"/></g></mask><clipPath id="e8da059224"><path d="M 39 13 L 60 13 L 60 53 L 39 53 Z M 39 13 " clip-rule="nonzero"/></clipPath><clipPath id="9049216905"><path d="M 39.914062 15.277344 L 60.753906 13.480469 L 63.984375 50.992188 L 43.144531 52.789062 Z M 39.914062 15.277344 " clip-rule="nonzero"/></clipPath><clipPath id="c5419f0026"><path d="M -0.0625 4.335938 L 59.480469 -0.789062 L 64.609375 58.753906 L 5.066406 63.878906 Z M -0.0625 4.335938 " clip-rule="nonzero"/></clipPath><clipPath id="ca6225dfd7"><rect x="0" width="64" y="0" height="63"/></clipPath><mask id="2caa89eff4"><g filter="url(#ca7eb897db)"><rect x="-43.725" width="524.7" fill="#000000" y="-27.15" height="325.799996" fill-opacity="0.9686"/></g></mask><clipPath id="568e545286"><path d="M 35 34 L 59 34 L 59 51 L 35 51 Z M 35 34 " clip-rule="nonzero"/></clipPath><clipPath id="d2b7b5a04c"><path d="M 35.214844 36.191406 L 56.949219 34.320312 L 58.152344 48.3125 L 36.417969 50.183594 Z M 35.214844 36.191406 " clip-rule="nonzero"/></clipPath><clipPath id="508dea5fc4"><path d="M -0.046875 4.242188 L 59.496094 -0.886719 L 64.621094 58.65625 L 5.078125 63.785156 Z M -0.046875 4.242188 " clip-rule="nonzero"/></clipPath><clipPath id="c79932676d"><rect x="0" width="64" y="0" height="63"/></clipPath><mask id="28b1796acb"><g filter="url(#ca7eb897db)"><rect x="-43.725" width="524.7" fill="#000000" y="-27.15" height="325.799996" fill-opacity="0.9686"/></g></mask><clipPath id="5ba33da080"><path d="M 4 1 L 60 1 L 60 62 L 4 62 Z M 4 1 " clip-rule="nonzero"/></clipPath><clipPath id="3527290e03"><path d="M -0.289062 4.308594 L 59.253906 -0.820312 L 64.382812 58.722656 L 4.839844 63.851562 Z M -0.289062 4.308594 " clip-rule="nonzero"/></clipPath><clipPath id="bb5f22f282"><path d="M -0.289062 4.308594 L 59.253906 -0.820312 L 64.382812 58.722656 L 4.839844 63.851562 Z M -0.289062 4.308594 " clip-rule="nonzero"/></clipPath><clipPath id="af3c1e3bbf"><rect x="0" width="63" y="0" height="63"/></clipPath><mask id="95a884993c"><g filter="url(#ca7eb897db)"><rect x="-43.725" width="524.7" fill="#000000" y="-27.15" height="325.799996" fill-opacity="0.898"/></g></mask><clipPath id="697ce75971"><path d="M 7 1 L 60 1 L 60 46 L 7 46 Z M 7 1 " clip-rule="nonzero"/></clipPath><clipPath id="4fb115527c"><path d="M 7.574219 4.828125 L 59.375 0.367188 L 62.914062 41.453125 L 11.109375 45.910156 Z M 7.574219 4.828125 " clip-rule="nonzero"/></clipPath><clipPath id="738a20e6ec"><path d="M -0.28125 4.367188 L 59.261719 -0.761719 L 64.390625 58.78125 L 4.847656 63.910156 Z M -0.28125 4.367188 " clip-rule="nonzero"/></clipPath><clipPath id="e092008075"><rect x="0" width="63" y="0" height="63"/></clipPath><mask id="19dbe0a630"><g filter="url(#ca7eb897db)"><rect x="-43.725" width="524.7" fill="#000000" y="-27.15" height="325.799996" fill-opacity="0.898"/></g></mask><clipPath id="03faeb9ae5"><path d="M 24 1 L 60 1 L 60 21 L 24 21 Z M 24 1 " clip-rule="nonzero"/></clipPath><clipPath id="a418cac5eb"><path d="M 24.535156 2.171875 L 59.367188 -0.828125 L 60.957031 17.628906 L 26.125 20.628906 Z M 24.535156 2.171875 " clip-rule="nonzero"/></clipPath><clipPath id="666c934d30"><path d="M -0.285156 4.308594 L 59.257812 -0.820312 L 64.382812 58.722656 L 4.839844 63.851562 Z M -0.285156 4.308594 " clip-rule="nonzero"/></clipPath><clipPath id="e8467fd5c7"><rect x="0" width="63" y="0" height="63"/></clipPath><mask id="b451d74a5b"><g filter="url(#ca7eb897db)"><rect x="-43.725" width="524.7" fill="#000000" y="-27.15" height="325.799996" fill-opacity="0.9686"/></g></mask><clipPath id="9d5cadcdf3"><path d="M 39 13 L 60 13 L 60 53 L 39 53 Z M 39 13 " clip-rule="nonzero"/></clipPath><clipPath id="e677c8edf6"><path d="M 39.691406 15.304688 L 60.53125 13.511719 L 63.761719 51.023438 L 42.921875 52.816406 Z M 39.691406 15.304688 " clip-rule="nonzero"/></clipPath><clipPath id="1a8c73f05a"><path d="M -0.28125 4.367188 L 59.261719 -0.761719 L 64.386719 58.78125 L 4.84375 63.910156 Z M -0.28125 4.367188 " clip-rule="nonzero"/></clipPath><clipPath id="11092309cb"><rect x="0" width="63" y="0" height="63"/></clipPath><mask id="542962c386"><g filter="url(#ca7eb897db)"><rect x="-43.725" width="524.7" fill="#000000" y="-27.15" height="325.799996" fill-opacity="0.9686"/></g></mask><clipPath id="088bf50ebf"><path d="M 34 34 L 58 34 L 58 49 L 34 49 Z M 34 34 " clip-rule="nonzero"/></clipPath><clipPath id="437128830d"><path d="M 34.773438 36.367188 L 56.804688 34.472656 L 57.878906 46.976562 L 35.847656 48.871094 Z M 34.773438 36.367188 " clip-rule="nonzero"/></clipPath><clipPath id="0a535c0bf7"><path d="M -0.265625 4.417969 L 59.273438 -0.707031 L 64.402344 58.835938 L 4.859375 63.960938 Z M -0.265625 4.417969 " clip-rule="nonzero"/></clipPath><clipPath id="afae418c96"><rect x="0" width="63" y="0" height="63"/></clipPath></defs><g clip-path="url(#e65522cf09)"><path fill="#000000" d="M 136.011719 182.515625 C 109.957031 182.515625 88.847656 161.265625 88.847656 135.355469 C 88.847656 109.445312 109.957031 88.191406 136.011719 88.191406 C 162.070312 88.191406 183.175781 109.296875 183.175781 135.355469 C 183.175781 161.410156 161.921875 182.515625 136.011719 182.515625 Z M 136.011719 91.101562 C 111.558594 91.101562 91.761719 110.898438 91.761719 135.355469 C 91.761719 159.808594 111.558594 179.605469 136.011719 179.605469 C 160.46875 179.605469 180.265625 159.808594 180.265625 135.355469 C 180.265625 110.898438 160.320312 91.101562 136.011719 91.101562 Z M 136.011719 91.101562 " fill-opacity="1" fill-rule="nonzero"/></g><g clip-path="url(#74582593bd)"><path fill="#6bfff7" d="M 136.152344 181.160156 C 110.921875 181.160156 90.484375 160.582031 90.484375 135.492188 C 90.484375 110.40625 110.921875 89.828125 136.152344 89.828125 C 161.378906 89.828125 181.816406 110.265625 181.816406 135.492188 C 181.816406 160.722656 161.238281 181.160156 136.152344 181.160156 Z M 136.152344 92.644531 C 112.472656 92.644531 93.304688 111.816406 93.304688 135.492188 C 93.304688 159.171875 112.472656 178.339844 136.152344 178.339844 C 159.828125 178.339844 179 159.171875 179 135.492188 C 179 111.816406 159.6875 92.644531 136.152344 92.644531 Z M 136.152344 92.644531 " fill-opacity="1" fill-rule="nonzero"/></g><g clip-path="url(#dfdd24cdc0)"><path fill="#eff53e" d="M 136.3125 179.820312 C 111.910156 179.820312 92.140625 159.917969 92.140625 135.652344 C 92.140625 111.386719 111.910156 91.484375 136.3125 91.484375 C 160.710938 91.484375 180.480469 111.25 180.480469 135.652344 C 180.480469 160.054688 160.578125 179.820312 136.3125 179.820312 Z M 136.3125 94.210938 C 113.410156 94.210938 94.867188 112.75 94.867188 135.652344 C 94.867188 158.554688 113.410156 177.09375 136.3125 177.09375 C 159.214844 177.09375 177.753906 158.554688 177.753906 135.652344 C 177.753906 112.75 159.078125 94.210938 136.3125 94.210938 Z M 136.3125 94.210938 " fill-opacity="1" fill-rule="nonzero"/></g><g mask="url(#e4981a9258)"><g transform="matrix(1, 0, 0, 1, 104, 105)"><g clip-path="url(#2acc6f3a28)"><g clip-path="url(#3a6f660e3c)"><g clip-path="url(#a67bba5364)"><g clip-path="url(#cb5f0131d5)"><path fill="#0e2b0d" d="M 39.910156 28.25 C 37.988281 26.632812 35.863281 24.847656 33.941406 23.230469 C 29.871094 19.804688 23.085938 20.828125 18.855469 25.855469 C 15.472656 29.875 11.324219 34.804688 7.941406 38.824219 C 3.707031 43.855469 3.863281 50.714844 7.933594 54.140625 C 9.855469 55.757812 11.980469 57.542969 13.902344 59.160156 C 17.972656 62.585938 24.757812 61.566406 28.988281 56.535156 C 31.386719 53.683594 34.175781 50.371094 36.800781 47.253906 C 37.480469 46.445312 37.375 45.238281 36.570312 44.5625 C 35.761719 43.882812 34.558594 43.984375 33.878906 44.792969 C 31.253906 47.910156 28.46875 51.226562 26.066406 54.078125 C 23.320312 57.34375 19.003906 58.464844 16.359375 56.238281 C 16.359375 56.238281 10.394531 51.21875 10.394531 51.21875 C 7.75 48.992188 8.113281 44.550781 10.863281 41.28125 C 14.246094 37.265625 18.394531 32.332031 21.777344 28.316406 C 24.523438 25.046875 28.839844 23.925781 31.484375 26.152344 C 31.484375 26.152344 37.453125 31.171875 37.453125 31.171875 C 38.257812 31.851562 39.464844 31.746094 40.140625 30.941406 C 40.820312 30.136719 40.714844 28.929688 39.910156 28.25 Z M 24.417969 34.546875 C 26.339844 36.164062 28.464844 37.953125 30.386719 39.570312 C 34.457031 42.996094 41.242188 41.972656 45.472656 36.945312 C 48.855469 32.925781 53.003906 27.992188 56.386719 23.976562 C 60.621094 18.945312 60.464844 12.085938 56.394531 8.660156 C 54.472656 7.042969 52.347656 5.257812 50.425781 3.640625 C 46.355469 0.214844 39.574219 1.234375 35.339844 6.265625 C 32.941406 9.117188 30.152344 12.429688 27.527344 15.546875 C 26.851562 16.355469 26.953125 17.558594 27.757812 18.238281 C 28.566406 18.917969 29.773438 18.8125 30.449219 18.007812 C 33.074219 14.886719 35.863281 11.574219 38.261719 8.722656 C 41.007812 5.457031 45.324219 4.335938 47.96875 6.5625 C 47.96875 6.5625 53.9375 11.582031 53.9375 11.582031 C 56.582031 13.808594 56.214844 18.25 53.464844 21.515625 C 50.082031 25.535156 45.933594 30.46875 42.550781 34.484375 C 39.804688 37.753906 35.488281 38.875 32.84375 36.648438 C 32.84375 36.648438 26.878906 31.628906 26.878906 31.628906 C 26.070312 30.949219 24.867188 31.054688 24.1875 31.859375 C 23.507812 32.664062 23.613281 33.871094 24.417969 34.546875 Z M 24.417969 34.546875 " fill-opacity="1" fill-rule="evenodd"/></g></g></g></g></g></g><g mask="url(#e88b160470)"><g transform="matrix(1, 0, 0, 1, 104, 105)"><g clip-path="url(#05742d256c)"><g clip-path="url(#685914fdd5)"><g clip-path="url(#03a1394124)"><g clip-path="url(#7c7e343e3f)"><path fill="#0e2b0d" d="M 39.917969 28.308594 C 37.996094 26.691406 35.871094 24.90625 33.949219 23.289062 C 29.878906 19.863281 23.09375 20.886719 18.863281 25.914062 C 15.480469 29.933594 11.332031 34.863281 7.949219 38.882812 C 3.714844 43.914062 3.871094 50.773438 7.941406 54.199219 C 9.863281 55.816406 11.988281 57.601562 13.910156 59.21875 C 17.980469 62.644531 24.761719 61.625 28.996094 56.59375 C 31.394531 53.742188 34.183594 50.429688 36.808594 47.3125 C 37.484375 46.503906 37.382812 45.296875 36.574219 44.621094 C 35.769531 43.941406 34.5625 44.042969 33.886719 44.851562 C 31.261719 47.96875 28.472656 51.285156 26.074219 54.136719 C 23.328125 57.402344 19.011719 58.523438 16.367188 56.296875 C 16.367188 56.296875 10.398438 51.277344 10.398438 51.277344 C 7.753906 49.050781 8.121094 44.609375 10.871094 41.339844 C 14.253906 37.324219 18.402344 32.390625 21.785156 28.375 C 24.53125 25.105469 28.847656 23.984375 31.492188 26.210938 C 31.492188 26.210938 37.457031 31.230469 37.457031 31.230469 C 38.265625 31.910156 39.46875 31.804688 40.148438 31 C 40.828125 30.195312 40.722656 28.988281 39.917969 28.308594 Z M 24.425781 34.605469 C 26.347656 36.222656 28.472656 38.011719 30.394531 39.628906 C 34.464844 43.054688 41.25 42.03125 45.480469 37.003906 C 48.863281 32.984375 53.011719 28.050781 56.394531 24.035156 C 60.628906 19.003906 60.472656 12.144531 56.402344 8.71875 C 54.480469 7.101562 52.355469 5.316406 50.433594 3.699219 C 46.363281 0.273438 39.578125 1.292969 35.347656 6.324219 C 32.945312 9.175781 30.160156 12.488281 27.535156 15.605469 C 26.855469 16.414062 26.960938 17.617188 27.765625 18.296875 C 28.574219 18.976562 29.777344 18.871094 30.457031 18.066406 C 33.082031 14.945312 35.867188 11.632812 38.269531 8.78125 C 41.015625 5.515625 45.332031 4.394531 47.976562 6.621094 C 47.976562 6.621094 53.941406 11.640625 53.941406 11.640625 C 56.585938 13.867188 56.222656 18.308594 53.472656 21.574219 C 50.089844 25.59375 45.941406 30.527344 42.558594 34.542969 C 39.8125 37.8125 35.496094 38.933594 32.851562 36.707031 C 32.851562 36.707031 26.882812 31.6875 26.882812 31.6875 C 26.078125 31.007812 24.871094 31.113281 24.195312 31.917969 C 23.515625 32.722656 23.621094 33.929688 24.425781 34.605469 Z M 24.425781 34.605469 " fill-opacity="1" fill-rule="evenodd"/></g></g></g></g></g></g><g mask="url(#a7e57162ad)"><g transform="matrix(1, 0, 0, 1, 104, 105)"><g clip-path="url(#a67bcb37d4)"><g clip-path="url(#e934c829c9)"><g clip-path="url(#9907c415e2)"><g clip-path="url(#dc02e26767)"><path fill="#0e2b0d" d="M 39.910156 28.25 C 37.988281 26.632812 35.863281 24.847656 33.945312 23.230469 C 29.871094 19.804688 23.085938 20.828125 18.855469 25.855469 C 15.472656 29.875 11.324219 34.804688 7.941406 38.824219 C 3.710938 43.855469 3.863281 50.710938 7.933594 54.140625 C 9.855469 55.757812 11.980469 57.542969 13.902344 59.160156 C 17.976562 62.585938 24.757812 61.566406 28.992188 56.535156 C 31.390625 53.683594 34.175781 50.371094 36.800781 47.25 C 37.480469 46.445312 37.375 45.238281 36.570312 44.5625 C 35.765625 43.882812 34.558594 43.984375 33.878906 44.792969 C 31.253906 47.910156 28.46875 51.226562 26.070312 54.078125 C 23.320312 57.34375 19.003906 58.464844 16.359375 56.238281 C 16.359375 56.238281 10.394531 51.21875 10.394531 51.21875 C 7.75 48.992188 8.117188 44.550781 10.863281 41.28125 C 14.246094 37.265625 18.394531 32.332031 21.777344 28.316406 C 24.527344 25.046875 28.839844 23.925781 31.484375 26.152344 C 31.484375 26.152344 37.453125 31.171875 37.453125 31.171875 C 38.257812 31.851562 39.464844 31.746094 40.140625 30.941406 C 40.820312 30.136719 40.714844 28.929688 39.910156 28.25 Z M 24.421875 34.546875 C 26.339844 36.164062 28.464844 37.953125 30.386719 39.570312 C 34.460938 42.996094 41.242188 41.972656 45.476562 36.945312 C 48.855469 32.925781 53.007812 27.992188 56.386719 23.976562 C 60.621094 18.945312 60.46875 12.085938 56.394531 8.660156 C 54.472656 7.042969 52.351562 5.257812 50.429688 3.640625 C 46.355469 0.210938 39.574219 1.234375 35.339844 6.265625 C 32.941406 9.117188 30.152344 12.429688 27.527344 15.546875 C 26.851562 16.355469 26.953125 17.558594 27.761719 18.238281 C 28.566406 18.917969 29.773438 18.8125 30.449219 18.007812 C 33.074219 14.886719 35.863281 11.574219 38.261719 8.722656 C 41.011719 5.457031 45.324219 4.335938 47.96875 6.5625 C 47.96875 6.5625 53.9375 11.582031 53.9375 11.582031 C 56.582031 13.808594 56.214844 18.25 53.464844 21.515625 C 50.085938 25.535156 45.933594 30.46875 42.554688 34.484375 C 39.804688 37.753906 35.488281 38.875 32.84375 36.648438 C 32.84375 36.648438 26.878906 31.628906 26.878906 31.628906 C 26.074219 30.949219 24.867188 31.054688 24.1875 31.859375 C 23.511719 32.664062 23.613281 33.871094 24.421875 34.546875 Z M 24.421875 34.546875 " fill-opacity="1" fill-rule="evenodd"/></g></g></g></g></g></g><g mask="url(#70be0104f0)"><g transform="matrix(1, 0, 0, 1, 104, 105)"><g clip-path="url(#ca6225dfd7)"><g clip-path="url(#e8da059224)"><g clip-path="url(#9049216905)"><g clip-path="url(#c5419f0026)"><path fill="#0e2b0d" d="M 39.914062 28.308594 C 37.996094 26.691406 35.871094 24.90625 33.949219 23.289062 C 29.875 19.863281 23.09375 20.886719 18.859375 25.914062 C 15.480469 29.933594 11.328125 34.863281 7.949219 38.882812 C 3.714844 43.914062 3.867188 50.769531 7.941406 54.199219 C 9.863281 55.8125 11.984375 57.601562 13.90625 59.21875 C 17.980469 62.644531 24.761719 61.625 28.996094 56.59375 C 31.394531 53.742188 34.179688 50.429688 36.808594 47.308594 C 37.484375 46.503906 37.378906 45.296875 36.574219 44.621094 C 35.769531 43.941406 34.5625 44.042969 33.886719 44.851562 C 31.261719 47.96875 28.472656 51.285156 26.074219 54.132812 C 23.324219 57.402344 19.011719 58.523438 16.367188 56.296875 C 16.367188 56.296875 10.398438 51.277344 10.398438 51.277344 C 7.753906 49.050781 8.121094 44.609375 10.871094 41.339844 C 14.25 37.324219 18.402344 32.390625 21.78125 28.375 C 24.53125 25.105469 28.847656 23.984375 31.492188 26.210938 C 31.492188 26.210938 37.457031 31.230469 37.457031 31.230469 C 38.261719 31.910156 39.46875 31.804688 40.148438 31 C 40.824219 30.191406 40.722656 28.988281 39.914062 28.308594 Z M 24.425781 34.605469 C 26.347656 36.222656 28.46875 38.011719 30.390625 39.628906 C 34.464844 43.054688 41.25 42.03125 45.480469 37.003906 C 48.863281 32.984375 53.011719 28.050781 56.394531 24.03125 C 60.625 19.003906 60.472656 12.144531 56.398438 8.71875 C 54.480469 7.101562 52.355469 5.3125 50.433594 3.699219 C 46.359375 0.269531 39.578125 1.292969 35.34375 6.324219 C 32.945312 9.175781 30.160156 12.484375 27.535156 15.605469 C 26.855469 16.410156 26.960938 17.617188 27.765625 18.296875 C 28.570312 18.976562 29.777344 18.871094 30.457031 18.0625 C 33.082031 14.945312 35.867188 11.632812 38.265625 8.78125 C 41.015625 5.515625 45.332031 4.394531 47.976562 6.617188 C 47.976562 6.617188 53.941406 11.640625 53.941406 11.640625 C 56.585938 13.863281 56.21875 18.308594 53.472656 21.574219 C 50.089844 25.589844 45.941406 30.523438 42.558594 34.542969 C 39.808594 37.808594 35.496094 38.929688 32.851562 36.707031 C 32.851562 36.707031 26.882812 31.683594 26.882812 31.683594 C 26.078125 31.007812 24.871094 31.109375 24.195312 31.917969 C 23.515625 32.722656 23.621094 33.929688 24.425781 34.605469 Z M 24.425781 34.605469 " fill-opacity="1" fill-rule="evenodd"/></g></g></g></g></g></g><g mask="url(#2caa89eff4)"><g transform="matrix(1, 0, 0, 1, 104, 105)"><g clip-path="url(#c79932676d)"><g clip-path="url(#568e545286)"><g clip-path="url(#d2b7b5a04c)"><g clip-path="url(#508dea5fc4)"><path fill="#0e2b0d" d="M 39.929688 28.214844 C 38.007812 26.597656 35.882812 24.808594 33.960938 23.191406 C 29.890625 19.765625 23.105469 20.789062 18.875 25.816406 C 15.492188 29.835938 11.34375 34.769531 7.960938 38.785156 C 3.730469 43.816406 3.882812 50.675781 7.953125 54.101562 C 9.875 55.71875 12 57.503906 13.921875 59.121094 C 17.992188 62.546875 24.777344 61.527344 29.007812 56.496094 C 31.410156 53.644531 34.195312 50.332031 36.820312 47.214844 C 37.5 46.40625 37.394531 45.203125 36.589844 44.523438 C 35.78125 43.84375 34.578125 43.949219 33.898438 44.753906 C 31.273438 47.875 28.488281 51.1875 26.089844 54.039062 C 23.339844 57.304688 19.023438 58.425781 16.378906 56.199219 C 16.378906 56.199219 10.414062 51.179688 10.414062 51.179688 C 7.769531 48.953125 8.136719 44.511719 10.882812 41.246094 C 14.265625 37.226562 18.414062 32.292969 21.796875 28.277344 C 24.542969 25.007812 28.859375 23.886719 31.503906 26.113281 C 31.503906 26.113281 37.472656 31.132812 37.472656 31.132812 C 38.277344 31.8125 39.484375 31.707031 40.160156 30.902344 C 40.839844 30.097656 40.734375 28.890625 39.929688 28.214844 Z M 24.4375 34.511719 C 26.359375 36.128906 28.484375 37.914062 30.40625 39.53125 C 34.476562 42.957031 41.261719 41.933594 45.496094 36.90625 C 48.875 32.886719 53.027344 27.957031 56.40625 23.9375 C 60.640625 18.90625 60.488281 12.046875 56.414062 8.621094 C 54.492188 7.003906 52.367188 5.21875 50.449219 3.601562 C 46.375 0.175781 39.59375 1.195312 35.359375 6.226562 C 32.960938 9.078125 30.171875 12.390625 27.546875 15.507812 C 26.871094 16.316406 26.972656 17.523438 27.78125 18.199219 C 28.585938 18.878906 29.792969 18.777344 30.46875 17.96875 C 33.09375 14.851562 35.882812 11.535156 38.28125 8.683594 C 41.03125 5.417969 45.34375 4.296875 47.988281 6.523438 C 47.988281 6.523438 53.957031 11.542969 53.957031 11.542969 C 56.601562 13.769531 56.234375 18.210938 53.484375 21.480469 C 50.105469 25.496094 45.953125 30.429688 42.574219 34.445312 C 39.824219 37.714844 35.507812 38.835938 32.863281 36.609375 C 32.863281 36.609375 26.898438 31.589844 26.898438 31.589844 C 26.089844 30.910156 24.886719 31.015625 24.207031 31.820312 C 23.53125 32.625 23.632812 33.832031 24.4375 34.511719 Z M 24.4375 34.511719 " fill-opacity="1" fill-rule="evenodd"/></g></g></g></g></g></g><g mask="url(#28b1796acb)"><g transform="matrix(1, 0, 0, 1, 104, 103)"><g clip-path="url(#af3c1e3bbf)"><g clip-path="url(#5ba33da080)"><g clip-path="url(#3527290e03)"><g clip-path="url(#bb5f22f282)"><path fill="#6bfff7" d="M 39.6875 28.28125 C 37.769531 26.664062 35.644531 24.875 33.722656 23.257812 C 29.648438 19.832031 22.867188 20.855469 18.632812 25.882812 C 15.253906 29.902344 11.101562 34.835938 7.722656 38.855469 C 3.488281 43.882812 3.640625 50.742188 7.714844 54.167969 C 9.636719 55.785156 11.757812 57.574219 13.679688 59.1875 C 17.753906 62.617188 24.535156 61.59375 28.769531 56.5625 C 31.167969 53.710938 33.957031 50.402344 36.582031 47.28125 C 37.257812 46.476562 37.15625 45.269531 36.347656 44.589844 C 35.542969 43.910156 34.335938 44.015625 33.660156 44.824219 C 31.035156 47.941406 28.246094 51.253906 25.847656 54.105469 C 23.097656 57.371094 18.785156 58.492188 16.140625 56.269531 C 16.140625 56.269531 10.171875 51.246094 10.171875 51.246094 C 7.527344 49.023438 7.894531 44.578125 10.644531 41.3125 C 14.023438 37.296875 18.175781 32.363281 21.554688 28.34375 C 24.304688 25.078125 28.621094 23.957031 31.265625 26.179688 C 31.265625 26.179688 37.230469 31.203125 37.230469 31.203125 C 38.035156 31.878906 39.242188 31.777344 39.921875 30.96875 C 40.597656 30.164062 40.496094 28.957031 39.6875 28.28125 Z M 24.199219 34.578125 C 26.121094 36.195312 28.246094 37.980469 30.164062 39.597656 C 34.238281 43.023438 41.023438 42 45.253906 36.972656 C 48.636719 32.953125 52.785156 28.023438 56.167969 24.003906 C 60.398438 18.972656 60.246094 12.117188 56.171875 8.6875 C 54.253906 7.074219 52.128906 5.285156 50.207031 3.667969 C 46.132812 0.242188 39.351562 1.261719 35.117188 6.292969 C 32.71875 9.144531 29.933594 12.457031 27.308594 15.578125 C 26.628906 16.382812 26.734375 17.589844 27.539062 18.265625 C 28.34375 18.945312 29.550781 18.84375 30.230469 18.035156 C 32.855469 14.917969 35.640625 11.601562 38.039062 8.753906 C 40.789062 5.484375 45.105469 4.363281 47.75 6.589844 C 47.75 6.589844 53.714844 11.609375 53.714844 11.609375 C 56.359375 13.835938 55.992188 18.277344 53.246094 21.546875 C 49.863281 25.5625 45.714844 30.496094 42.332031 34.511719 C 39.582031 37.78125 35.269531 38.902344 32.625 36.675781 C 32.625 36.675781 26.65625 31.65625 26.65625 31.65625 C 25.851562 30.976562 24.644531 31.082031 23.96875 31.886719 C 23.289062 32.695312 23.394531 33.898438 24.199219 34.578125 Z M 24.199219 34.578125 " fill-opacity="1" fill-rule="evenodd"/></g></g></g></g></g></g><g mask="url(#95a884993c)"><g transform="matrix(1, 0, 0, 1, 104, 103)"><g clip-path="url(#e092008075)"><g clip-path="url(#697ce75971)"><g clip-path="url(#4fb115527c)"><g clip-path="url(#738a20e6ec)"><path fill="#fafb63" d="M 39.695312 28.339844 C 37.773438 26.722656 35.652344 24.933594 33.730469 23.316406 C 29.65625 19.890625 22.871094 20.914062 18.640625 25.941406 C 15.261719 29.960938 11.109375 34.894531 7.730469 38.914062 C 3.496094 43.941406 3.648438 50.800781 7.722656 54.226562 C 9.644531 55.84375 11.765625 57.632812 13.6875 59.246094 C 17.761719 62.675781 24.542969 61.652344 28.777344 56.621094 C 31.175781 53.769531 33.960938 50.460938 36.585938 47.339844 C 37.265625 46.535156 37.160156 45.328125 36.355469 44.648438 C 35.550781 43.96875 34.34375 44.074219 33.664062 44.882812 C 31.039062 48 28.253906 51.3125 25.855469 54.164062 C 23.105469 57.429688 18.792969 58.550781 16.144531 56.328125 C 16.144531 56.328125 10.179688 51.304688 10.179688 51.304688 C 7.535156 49.082031 7.902344 44.636719 10.648438 41.371094 C 14.03125 37.355469 18.179688 32.421875 21.5625 28.402344 C 24.3125 25.136719 28.625 24.015625 31.269531 26.238281 C 31.269531 26.238281 37.238281 31.261719 37.238281 31.261719 C 38.042969 31.9375 39.25 31.835938 39.929688 31.027344 C 40.605469 30.222656 40.503906 29.015625 39.695312 28.339844 Z M 24.207031 34.636719 C 26.128906 36.253906 28.25 38.039062 30.171875 39.65625 C 34.246094 43.082031 41.027344 42.058594 45.261719 37.03125 C 48.640625 33.011719 52.792969 28.082031 56.171875 24.0625 C 60.40625 19.03125 60.253906 12.175781 56.179688 8.746094 C 54.257812 7.132812 52.136719 5.34375 50.214844 3.726562 C 46.140625 0.300781 39.359375 1.320312 35.125 6.351562 C 32.726562 9.203125 29.941406 12.515625 27.316406 15.636719 C 26.636719 16.441406 26.742188 17.648438 27.546875 18.324219 C 28.351562 19.003906 29.558594 18.902344 30.234375 18.09375 C 32.863281 14.976562 35.648438 11.660156 38.046875 8.808594 C 40.796875 5.542969 45.109375 4.421875 47.753906 6.648438 C 47.753906 6.648438 53.722656 11.667969 53.722656 11.667969 C 56.367188 13.894531 56 18.335938 53.25 21.605469 C 49.871094 25.621094 45.722656 30.554688 42.339844 34.570312 C 39.589844 37.839844 35.277344 38.960938 32.632812 36.734375 C 32.632812 36.734375 26.664062 31.714844 26.664062 31.714844 C 25.859375 31.035156 24.652344 31.140625 23.972656 31.945312 C 23.296875 32.75 23.398438 33.957031 24.207031 34.636719 Z M 24.207031 34.636719 " fill-opacity="1" fill-rule="evenodd"/></g></g></g></g></g></g><g mask="url(#19dbe0a630)"><g transform="matrix(1, 0, 0, 1, 104, 103)"><g clip-path="url(#e8467fd5c7)"><g clip-path="url(#03faeb9ae5)"><g clip-path="url(#a418cac5eb)"><g clip-path="url(#666c934d30)"><path fill="#72fff3" d="M 39.691406 28.28125 C 37.769531 26.664062 35.644531 24.875 33.722656 23.257812 C 29.652344 19.832031 22.867188 20.855469 18.636719 25.882812 C 15.253906 29.902344 11.105469 34.835938 7.722656 38.851562 C 3.488281 43.882812 3.644531 50.742188 7.714844 54.167969 C 9.636719 55.785156 11.761719 57.570312 13.683594 59.1875 C 17.753906 62.617188 24.535156 61.59375 28.769531 56.5625 C 31.167969 53.710938 33.957031 50.402344 36.582031 47.28125 C 37.257812 46.476562 37.15625 45.269531 36.351562 44.589844 C 35.542969 43.910156 34.335938 44.015625 33.660156 44.824219 C 31.035156 47.941406 28.246094 51.253906 25.847656 54.105469 C 23.101562 57.371094 18.785156 58.492188 16.140625 56.265625 C 16.140625 56.265625 10.171875 51.246094 10.171875 51.246094 C 7.527344 49.019531 7.894531 44.578125 10.644531 41.3125 C 14.027344 37.296875 18.175781 32.359375 21.558594 28.34375 C 24.304688 25.078125 28.621094 23.957031 31.265625 26.179688 C 31.265625 26.179688 37.230469 31.203125 37.230469 31.203125 C 38.039062 31.878906 39.242188 31.777344 39.921875 30.96875 C 40.601562 30.164062 40.496094 28.957031 39.691406 28.28125 Z M 24.199219 34.578125 C 26.121094 36.195312 28.246094 37.980469 30.167969 39.597656 C 34.238281 43.023438 41.023438 42 45.253906 36.972656 C 48.636719 32.953125 52.785156 28.023438 56.167969 24.003906 C 60.402344 18.972656 60.246094 12.117188 56.175781 8.6875 C 54.253906 7.070312 52.128906 5.285156 50.207031 3.667969 C 46.136719 0.242188 39.351562 1.261719 35.121094 6.292969 C 32.722656 9.144531 29.933594 12.457031 27.308594 15.578125 C 26.628906 16.382812 26.734375 17.589844 27.539062 18.265625 C 28.347656 18.945312 29.550781 18.84375 30.230469 18.035156 C 32.855469 14.917969 35.640625 11.601562 38.042969 8.75 C 40.789062 5.484375 45.105469 4.363281 47.75 6.589844 C 47.75 6.589844 53.714844 11.609375 53.714844 11.609375 C 56.359375 13.835938 55.996094 18.277344 53.246094 21.546875 C 49.863281 25.5625 45.714844 30.496094 42.332031 34.511719 C 39.585938 37.78125 35.269531 38.902344 32.625 36.675781 C 32.625 36.675781 26.65625 31.65625 26.65625 31.65625 C 25.851562 30.976562 24.644531 31.082031 23.96875 31.886719 C 23.289062 32.691406 23.394531 33.898438 24.199219 34.578125 Z M 24.199219 34.578125 " fill-opacity="1" fill-rule="evenodd"/></g></g></g></g></g></g><g mask="url(#b451d74a5b)"><g transform="matrix(1, 0, 0, 1, 104, 103)"><g clip-path="url(#11092309cb)"><g clip-path="url(#9d5cadcdf3)"><g clip-path="url(#e677c8edf6)"><g clip-path="url(#1a8c73f05a)"><path fill="#6bfff7" d="M 39.695312 28.339844 C 37.773438 26.722656 35.648438 24.933594 33.726562 23.316406 C 29.65625 19.890625 22.871094 20.914062 18.640625 25.941406 C 15.257812 29.960938 11.109375 34.894531 7.726562 38.910156 C 3.496094 43.941406 3.648438 50.800781 7.71875 54.226562 C 9.640625 55.84375 11.765625 57.628906 13.6875 59.246094 C 17.757812 62.671875 24.542969 61.652344 28.773438 56.621094 C 31.175781 53.769531 33.960938 50.457031 36.585938 47.339844 C 37.265625 46.53125 37.160156 45.328125 36.355469 44.648438 C 35.546875 43.96875 34.34375 44.074219 33.664062 44.878906 C 31.039062 48 28.253906 51.3125 25.855469 54.164062 C 23.105469 57.429688 18.789062 58.550781 16.144531 56.324219 C 16.144531 56.324219 10.179688 51.304688 10.179688 51.304688 C 7.535156 49.078125 7.902344 44.636719 10.648438 41.371094 C 14.03125 37.351562 18.179688 32.417969 21.5625 28.402344 C 24.308594 25.132812 28.625 24.011719 31.269531 26.238281 C 31.269531 26.238281 37.238281 31.257812 37.238281 31.257812 C 38.042969 31.9375 39.25 31.832031 39.925781 31.027344 C 40.605469 30.222656 40.5 29.015625 39.695312 28.339844 Z M 24.203125 34.636719 C 26.125 36.253906 28.25 38.039062 30.171875 39.65625 C 34.242188 43.082031 41.027344 42.058594 45.261719 37.03125 C 48.640625 33.011719 52.792969 28.082031 56.171875 24.0625 C 60.40625 19.03125 60.253906 12.171875 56.179688 8.746094 C 54.257812 7.128906 52.132812 5.34375 50.214844 3.726562 C 46.140625 0.300781 39.359375 1.320312 35.125 6.351562 C 32.726562 9.203125 29.9375 12.515625 27.3125 15.632812 C 26.636719 16.441406 26.738281 17.648438 27.546875 18.324219 C 28.351562 19.003906 29.558594 18.902344 30.234375 18.09375 C 32.859375 14.976562 35.648438 11.660156 38.046875 8.808594 C 40.796875 5.542969 45.109375 4.421875 47.753906 6.648438 C 47.753906 6.648438 53.722656 11.667969 53.722656 11.667969 C 56.367188 13.894531 56 18.335938 53.25 21.605469 C 49.871094 25.621094 45.71875 30.554688 42.339844 34.570312 C 39.589844 37.839844 35.273438 38.960938 32.628906 36.734375 C 32.628906 36.734375 26.664062 31.714844 26.664062 31.714844 C 25.855469 31.035156 24.652344 31.140625 23.972656 31.945312 C 23.296875 32.75 23.398438 33.957031 24.203125 34.636719 Z M 24.203125 34.636719 " fill-opacity="1" fill-rule="evenodd"/></g></g></g></g></g></g><g mask="url(#542962c386)"><g transform="matrix(1, 0, 0, 1, 104, 103)"><g clip-path="url(#afae418c96)"><g clip-path="url(#088bf50ebf)"><g clip-path="url(#437128830d)"><g clip-path="url(#0a535c0bf7)"><path fill="#6bfff7" d="M 39.710938 28.390625 C 37.789062 26.773438 35.664062 24.988281 33.742188 23.371094 C 29.671875 19.945312 22.886719 20.96875 18.65625 25.996094 C 15.273438 30.015625 11.125 34.945312 7.742188 38.964844 C 3.507812 43.996094 3.664062 50.851562 7.734375 54.28125 C 9.65625 55.894531 11.78125 57.683594 13.703125 59.300781 C 17.773438 62.726562 24.554688 61.707031 28.789062 56.675781 C 31.1875 53.824219 33.976562 50.511719 36.601562 47.390625 C 37.277344 46.585938 37.175781 45.378906 36.367188 44.703125 C 35.5625 44.023438 34.355469 44.125 33.679688 44.933594 C 31.054688 48.050781 28.265625 51.367188 25.867188 54.21875 C 23.121094 57.484375 18.804688 58.605469 16.160156 56.378906 C 16.160156 56.378906 10.191406 51.359375 10.191406 51.359375 C 7.546875 49.132812 7.914062 44.691406 10.664062 41.421875 C 14.046875 37.40625 18.195312 32.472656 21.578125 28.457031 C 24.324219 25.1875 28.640625 24.066406 31.285156 26.292969 C 31.285156 26.292969 37.25 31.3125 37.25 31.3125 C 38.058594 31.992188 39.261719 31.886719 39.941406 31.082031 C 40.621094 30.277344 40.515625 29.070312 39.710938 28.390625 Z M 24.21875 34.6875 C 26.140625 36.304688 28.265625 38.09375 30.1875 39.710938 C 34.257812 43.136719 41.042969 42.113281 45.273438 37.085938 C 48.65625 33.066406 52.804688 28.132812 56.1875 24.113281 C 60.421875 19.085938 60.265625 12.226562 56.195312 8.800781 C 54.273438 7.183594 52.148438 5.394531 50.226562 3.78125 C 46.15625 0.351562 39.371094 1.375 35.140625 6.40625 C 32.738281 9.257812 29.953125 12.566406 27.328125 15.6875 C 26.648438 16.492188 26.753906 17.699219 27.558594 18.378906 C 28.367188 19.058594 29.570312 18.953125 30.25 18.144531 C 32.875 15.027344 35.660156 11.714844 38.0625 8.863281 C 40.808594 5.597656 45.125 4.476562 47.769531 6.699219 C 47.769531 6.699219 53.734375 11.722656 53.734375 11.722656 C 56.378906 13.945312 56.015625 18.390625 53.265625 21.65625 C 49.882812 25.671875 45.734375 30.605469 42.351562 34.625 C 39.605469 37.890625 35.289062 39.011719 32.644531 36.789062 C 32.644531 36.789062 26.675781 31.765625 26.675781 31.765625 C 25.871094 31.089844 24.664062 31.191406 23.988281 32 C 23.308594 32.804688 23.414062 34.011719 24.21875 34.6875 Z M 24.21875 34.6875 " fill-opacity="1" fill-rule="evenodd"/></g></g></g></g></g></g><g fill="#000000" fill-opacity="1"><g transform="translate(196.508584, 155.108163)"><g><path d="M 6.113281 0 L 41.34375 0 C 41.703125 0 41.945312 -0.238281 41.945312 -0.597656 L 41.945312 -5.394531 C 41.945312 -5.753906 41.703125 -5.992188 41.34375 -5.992188 L 7.191406 -5.992188 C 6.53125 -5.992188 5.992188 -6.53125 5.992188 -7.191406 L 5.992188 -22.769531 C 5.992188 -23.429688 6.53125 -23.96875 7.191406 -23.96875 L 41.34375 -23.96875 C 41.703125 -23.96875 41.945312 -24.207031 41.945312 -24.566406 L 41.945312 -29.359375 C 41.945312 -29.71875 41.703125 -29.960938 41.34375 -29.960938 L 6.113281 -29.960938 C 2.578125 -29.960938 0 -27.382812 0 -23.847656 L 0 -6.113281 C 0 -2.578125 2.578125 0 6.113281 0 Z M 6.113281 0 "/></g></g></g><g fill="#000000" fill-opacity="1"><g transform="translate(244.440569, 155.108163)"><g><path d="M 0.597656 0 L 5.394531 0 C 5.753906 0 5.992188 -0.238281 5.992188 -0.597656 L 5.992188 -11.984375 L 38.46875 -11.984375 C 38.949219 -11.984375 39.1875 -12.222656 39.1875 -12.582031 L 39.1875 -17.375 C 39.1875 -17.734375 38.949219 -17.976562 38.46875 -17.976562 L 5.992188 -17.976562 L 5.992188 -22.769531 C 5.992188 -23.429688 6.53125 -23.96875 7.191406 -23.96875 L 41.34375 -23.96875 C 41.703125 -23.96875 41.945312 -24.207031 41.945312 -24.566406 L 41.945312 -29.359375 C 41.945312 -29.71875 41.703125 -29.960938 41.34375 -29.960938 L 6.113281 -29.960938 C 2.578125 -29.960938 0 -27.382812 0 -23.847656 L 0 -0.597656 C 0 -0.238281 0.238281 0 0.597656 0 Z M 0.597656 0 "/></g></g></g><g fill="#000000" fill-opacity="1"><g transform="translate(292.372555, 155.108163)"><g><path d="M 6.113281 0 L 41.34375 0 C 41.703125 0 41.945312 -0.238281 41.945312 -0.597656 L 41.945312 -5.394531 C 41.945312 -5.753906 41.703125 -5.992188 41.34375 -5.992188 L 7.191406 -5.992188 C 6.53125 -5.992188 5.992188 -6.53125 5.992188 -7.191406 L 5.992188 -22.769531 C 5.992188 -23.429688 6.53125 -23.96875 7.191406 -23.96875 L 41.34375 -23.96875 C 41.703125 -23.96875 41.945312 -24.207031 41.945312 -24.566406 L 41.945312 -29.359375 C 41.945312 -29.71875 41.703125 -29.960938 41.34375 -29.960938 L 6.113281 -29.960938 C 2.578125 -29.960938 0 -27.382812 0 -23.847656 L 0 -6.113281 C 0 -2.578125 2.578125 0 6.113281 0 Z M 6.113281 0 "/></g></g></g><g fill="#000000" fill-opacity="1"><g transform="translate(340.297412, 155.108163)"><g/></g></g><g fill="#6bfff7" fill-opacity="1"><g transform="translate(247.005195, 154.374314)"><g><path d="M 0.597656 0 L 5.394531 0 C 5.753906 0 5.992188 -0.238281 5.992188 -0.597656 L 5.992188 -11.984375 L 38.46875 -11.984375 C 38.949219 -11.984375 39.1875 -12.222656 39.1875 -12.582031 L 39.1875 -17.375 C 39.1875 -17.734375 38.949219 -17.976562 38.46875 -17.976562 L 5.992188 -17.976562 L 5.992188 -22.769531 C 5.992188 -23.429688 6.53125 -23.96875 7.191406 -23.96875 L 41.34375 -23.96875 C 41.703125 -23.96875 41.945312 -24.207031 41.945312 -24.566406 L 41.945312 -29.359375 C 41.945312 -29.71875 41.703125 -29.960938 41.34375 -29.960938 L 6.113281 -29.960938 C 2.578125 -29.960938 0 -27.382812 0 -23.847656 L 0 -0.597656 C 0 -0.238281 0.238281 0 0.597656 0 Z M 0.597656 0 "/></g></g></g><g fill="#eff53e" fill-opacity="1"><g transform="translate(199.638479, 151.06317)"><g><path d="M 6.113281 0 L 41.34375 0 C 41.703125 0 41.945312 -0.238281 41.945312 -0.597656 L 41.945312 -5.394531 C 41.945312 -5.753906 41.703125 -5.992188 41.34375 -5.992188 L 7.191406 -5.992188 C 6.53125 -5.992188 5.992188 -6.53125 5.992188 -7.191406 L 5.992188 -22.769531 C 5.992188 -23.429688 6.53125 -23.96875 7.191406 -23.96875 L 41.34375 -23.96875 C 41.703125 -23.96875 41.945312 -24.207031 41.945312 -24.566406 L 41.945312 -29.359375 C 41.945312 -29.71875 41.703125 -29.960938 41.34375 -29.960938 L 6.113281 -29.960938 C 2.578125 -29.960938 0 -27.382812 0 -23.847656 L 0 -6.113281 C 0 -2.578125 2.578125 0 6.113281 0 Z M 6.113281 0 "/></g></g></g><g fill="#eff53e" fill-opacity="1"><g transform="translate(247.568907, 151.06317)"><g><path d="M 0.597656 0 L 5.394531 0 C 5.753906 0 5.992188 -0.238281 5.992188 -0.597656 L 5.992188 -11.984375 L 38.46875 -11.984375 C 38.949219 -11.984375 39.1875 -12.222656 39.1875 -12.582031 L 39.1875 -17.375 C 39.1875 -17.734375 38.949219 -17.976562 38.46875 -17.976562 L 5.992188 -17.976562 L 5.992188 -22.769531 C 5.992188 -23.429688 6.53125 -23.96875 7.191406 -23.96875 L 41.34375 -23.96875 C 41.703125 -23.96875 41.945312 -24.207031 41.945312 -24.566406 L 41.945312 -29.359375 C 41.945312 -29.71875 41.703125 -29.960938 41.34375 -29.960938 L 6.113281 -29.960938 C 2.578125 -29.960938 0 -27.382812 0 -23.847656 L 0 -0.597656 C 0 -0.238281 0.238281 0 0.597656 0 Z M 0.597656 0 "/></g></g></g><g fill="#eff53e" fill-opacity="1"><g transform="translate(295.499335, 151.06317)"><g><path d="M 6.113281 0 L 41.34375 0 C 41.703125 0 41.945312 -0.238281 41.945312 -0.597656 L 41.945312 -5.394531 C 41.945312 -5.753906 41.703125 -5.992188 41.34375 -5.992188 L 7.191406 -5.992188 C 6.53125 -5.992188 5.992188 -6.53125 5.992188 -7.191406 L 5.992188 -22.769531 C 5.992188 -23.429688 6.53125 -23.96875 7.191406 -23.96875 L 41.34375 -23.96875 C 41.703125 -23.96875 41.945312 -24.207031 41.945312 -24.566406 L 41.945312 -29.359375 C 41.945312 -29.71875 41.703125 -29.960938 41.34375 -29.960938 L 6.113281 -29.960938 C 2.578125 -29.960938 0 -27.382812 0 -23.847656 L 0 -6.113281 C 0 -2.578125 2.578125 0 6.113281 0 Z M 6.113281 0 "/></g></g></g><g fill="#eff53e" fill-opacity="1"><g transform="translate(343.420555, 151.06317)"><g/></g></g><g fill="#6bfff7" fill-opacity="1"><g transform="translate(181.832068, 152.666295)"><g/></g></g><g fill="#6bfff7" fill-opacity="1"><g transform="translate(199.798979, 152.666295)"><g><path d="M 6.113281 0 L 41.34375 0 C 41.703125 0 41.945312 -0.238281 41.945312 -0.597656 L 41.945312 -5.394531 C 41.945312 -5.753906 41.703125 -5.992188 41.34375 -5.992188 L 7.191406 -5.992188 C 6.53125 -5.992188 5.992188 -6.53125 5.992188 -7.191406 L 5.992188 -22.769531 C 5.992188 -23.429688 6.53125 -23.96875 7.191406 -23.96875 L 41.34375 -23.96875 C 41.703125 -23.96875 41.945312 -24.207031 41.945312 -24.566406 L 41.945312 -29.359375 C 41.945312 -29.71875 41.703125 -29.960938 41.34375 -29.960938 L 6.113281 -29.960938 C 2.578125 -29.960938 0 -27.382812 0 -23.847656 L 0 -6.113281 C 0 -2.578125 2.578125 0 6.113281 0 Z M 6.113281 0 "/></g></g></g><g fill="#6bfff7" fill-opacity="1"><g transform="translate(247.722438, 152.666295)"><g/></g></g><g fill="#6bfff7" fill-opacity="1"><g transform="translate(265.696352, 152.666295)"><g/></g></g><g fill="#6bfff7" fill-opacity="1"><g transform="translate(283.670265, 152.666295)"><g/></g></g><g fill="#6bfff7" fill-opacity="1"><g transform="translate(301.644179, 152.666295)"><g/></g></g><g fill="#6bfff7" fill-opacity="1"><g transform="translate(277.228469, 152.666295)"><g/></g></g><g fill="#6bfff7" fill-opacity="1"><g transform="translate(295.19538, 152.666295)"><g><path d="M 6.113281 0 L 41.34375 0 C 41.703125 0 41.945312 -0.238281 41.945312 -0.597656 L 41.945312 -5.394531 C 41.945312 -5.753906 41.703125 -5.992188 41.34375 -5.992188 L 7.191406 -5.992188 C 6.53125 -5.992188 5.992188 -6.53125 5.992188 -7.191406 L 5.992188 -22.769531 C 5.992188 -23.429688 6.53125 -23.96875 7.191406 -23.96875 L 41.34375 -23.96875 C 41.703125 -23.96875 41.945312 -24.207031 41.945312 -24.566406 L 41.945312 -29.359375 C 41.945312 -29.71875 41.703125 -29.960938 41.34375 -29.960938 L 6.113281 -29.960938 C 2.578125 -29.960938 0 -27.382812 0 -23.847656 L 0 -6.113281 C 0 -2.578125 2.578125 0 6.113281 0 Z M 6.113281 0 "/></g></g></g><g fill="#6bfff7" fill-opacity="1"><g transform="translate(343.118839, 152.666295)"><g/></g></g><g fill="#6bfff7" fill-opacity="1"><g transform="translate(361.092752, 152.666295)"><g/></g></g><g fill="#6bfff7" fill-opacity="1"><g transform="translate(379.066666, 152.666295)"><g/></g></g><g fill="#6bfff7" fill-opacity="1"><g transform="translate(397.040579, 152.666295)"><g/></g></g></svg>